<?xml version="1.0" encoding="utf-8"?>
<!-- Generator: Adobe Illustrator 28.0.0, SVG Export Plug-In . SVG Version: 6.00 Build 0)  -->
<svg version="1.1" xmlns="http://www.w3.org/2000/svg" width="24" height="24" xmlns:xlink="http://www.w3.org/1999/xlink" x="0px" y="0px"
	 viewBox="0 0 16 16" style="enable-background:new 0 0 16 16;" xml:space="preserve">
<g id="レイヤー_1">
	<path d="M5,4c0-0.3,0.2-0.5,0.5-0.5h8C13.8,3.5,14,3.7,14,4s-0.2,0.5-0.5,0.5h-8C5.2,4.5,5,4.3,5,4z M13.5,7.5h-8
		C5.2,7.5,5,7.7,5,8c0,0.3,0.2,0.5,0.5,0.5h8C13.8,8.5,14,8.3,14,8C14,7.7,13.8,7.5,13.5,7.5z M13.5,11.5h-8C5.2,11.5,5,11.7,5,12
		s0.2,0.5,0.5,0.5h8c0.3,0,0.5-0.2,0.5-0.5S13.8,11.5,13.5,11.5z M2.8,3.2C2.3,3.2,2,3.6,2,4s0.3,0.8,0.8,0.8S3.5,4.4,3.5,4
		S3.2,3.2,2.8,3.2z M2.8,7.2C2.3,7.2,2,7.6,2,8c0,0.4,0.3,0.8,0.8,0.8S3.5,8.4,3.5,8C3.5,7.6,3.2,7.2,2.8,7.2z M2.8,11.2
		C2.3,11.2,2,11.6,2,12s0.3,0.8,0.8,0.8s0.8-0.3,0.8-0.8S3.2,11.2,2.8,11.2z"/>
</g>
<g id="レイヤー_2">
</g>
</svg>
