<?xml version="1.0" encoding="UTF-8"?>
<svg id="_レイヤー_1" data-name="レイヤー 1" xmlns="http://www.w3.org/2000/svg" width="18" height="18" viewBox="0 0 12.09 10.93">
  <path d="m3.09,1.46c0-.28.22-.5.5-.5h8c.28,0,.5.22.5.5s-.22.5-.5.5H3.59c-.28,0-.5-.22-.5-.5Zm8.5,3.5H3.59c-.28,0-.5.22-.5.5s.22.5.5.5h8c.28,0,.5-.22.5-.5s-.22-.5-.5-.5Zm0,4H3.59c-.28,0-.5.22-.5.5s.22.5.5.5h8c.28,0,.5-.22.5-.5s-.22-.5-.5-.5Z" style="stroke-width: 0px;"/>
  <path d="m1.03.02c-.07-.04-.15-.03-.21.01L.18.45c-.1.06-.12.19-.06.29.06.1.19.12.29.06l.3-.2v2.12c0,.12.09.21.21.21s.21-.09.21-.21V.21c0-.08-.04-.15-.11-.18Z" style="stroke-width: 0px;"/>
  <path d="m1.09,9.12l.55-.79c.07-.09.04-.22-.05-.29-.04-.03-.08-.04-.12-.04H.21c-.12,0-.21.09-.21.21s.09.21.21.21h.85l-.5.72c-.07.09-.04.23.05.29.04.02.08.04.12.04.29,0,.52.23.52.52,0,.29-.23.52-.52.52-.14,0-.28-.06-.37-.16-.08-.09-.21-.09-.3-.01-.09.08-.09.21-.01.3,0,0,0,0,.01.01.36.37.96.38,1.33.01.18-.18.28-.42.28-.67,0-.38-.23-.73-.59-.87Z" style="stroke-width: 0px;"/>
  <path d="m1.47,6.51h-.84l.88-1.17c.28-.37.2-.89-.17-1.17s-.89-.2-1.17.17c-.05.07-.09.14-.12.22-.04.11.01.23.12.27s.23-.01.27-.12c0,0,0,0,0,0,.01-.04.03-.08.06-.11.14-.19.4-.23.58-.09.19.14.23.4.09.58,0,0,0,0,0,.01L.04,6.6c-.07.09-.05.22.04.29.04.03.08.04.13.04h1.26c.12,0,.21-.09.21-.21s-.09-.21-.21-.21Z" style="stroke-width: 0px;"/>
</svg>